PathFileType	4	(X/Y/Z)	/Users/niels/Desktop/University/Third Semester/Perception and Action/Exam/Gymnastics Motion Tracking/Code for Gym Tracking/Analyzed Data/Webcam_Backflip/id2_4_baseline_Sports2D/id2_4_baseline_Sports2D_px_person00.trc
DataRate	CameraRate	NumFrames	NumMarkers	Units	OrigDataRate	OrigDataStartFrame	OrigNumFrames
29.87551867219917	29.87551867219917	8	22	m	29.87551867219917	90	241
Frame#	Time	Hip			RHip			RKnee			RAnkle			RBigToe			RSmallToe			RHeel			LHip			LKnee			LAnkle			LBigToe			LSmallToe			LHeel			Neck			Head			Nose			RShoulder			RElbow			RWrist			LShoulder			LElbow			LWrist		
		X1	Y1	Z1	X2	Y2	Z2	X3	Y3	Z3	X4	Y4	Z4	X5	Y5	Z5	X6	Y6	Z6	X7	Y7	Z7	X8	Y8	Z8	X9	Y9	Z9	X10	Y10	Z10	X11	Y11	Z11	X12	Y12	Z12	X13	Y13	Z13	X14	Y14	Z14	X15	Y15	Z15	X16	Y16	Z16	X17	Y17	Z17	X18	Y18	Z18	X19	Y19	Z19	X20	Y20	Z20	X21	Y21	Z21	X22	Y22	Z22
90	3.0125	0.8824008377052178	-0.5892593874556238	0.0	0.8823712653010706	-0.588187514035579	0.0	0.9743775601973487	-0.6592415531990468	0.0	0.932338680705585	-0.7734954437945339	0.0	0.9784214846668312	-0.7933681108468202	0.0	0.966125837108175	-0.7975804964717206	0.0	0.9191708185182653	-0.7851268786361459	0.0	0.8863585021352832	-0.5861856531665193	0.0	0.9704038425429895	-0.6555093902529932	0.0	0.9332094285345017	-0.7635507670260054	0.0	0.977700563420715	-0.7904319774628162	0.0	0.9690295725661916	-0.7990574271701754	0.0	0.910345328824805	-0.7767930579779716	0.0	0.9815699109707448	-0.4818317640414908	0.0	1.0361662081509138	-0.4303078412162331	0.0	1.0324413382582698	-0.4607334607498299	0.0	0.9715553705817984	-0.4938679153980129	0.0	0.9081844163874512	-0.5236623166189484	0.0	0.8580635825916592	-0.5619321848275893	0.0	0.9703373074021165	-0.48868308219585005	0.0	0.9089417441047312	-0.5221228263261865	0.0	0.86548114325762	-0.5563617330142788	0.0
91	3.0459722222222223	0.8835341135481424	-0.6137193749150079	0.0	0.8837787742877699	-0.6132240622577803	0.0	0.9731863761531484	-0.684813224532985	0.0	0.931200946747632	-0.7971535337348075	0.0	0.9781827381666724	-0.8133787614371388	0.0	0.965179970547524	-0.8169409949725668	0.0	0.9182225519700147	-0.807651383368704	0.0	0.8876932344408915	-0.610890843450554	0.0	0.969821431678979	-0.6807959957986127	0.0	0.9319459138112413	-0.7864228570919379	0.0	0.9787038632572781	-0.8129133023152025	0.0	0.968496596173251	-0.8226755759692385	0.0	0.9105081644682097	-0.798872493397551	0.0	0.9774413767721924	-0.5014982162757777	0.0	1.0253952181423087	-0.4453306634515918	0.0	1.025678340550442	-0.47707564729521457	0.0	0.9668240292720938	-0.5178767382782055	0.0	0.9175052298871167	-0.5652250841226663	0.0	0.887257283698302	-0.6129541583272169	0.0	0.9661436223294939	-0.5108956423355447	0.0	0.918963451920331	-0.558319749390437	0.0	0.8934762911600513	-0.602457034731636	0.0
92	3.0794444444444444	0.8859336241771284	-0.6377441754772655	0.0	0.8864599383238329	-0.6378185235539123	0.0	0.9714900520202948	-0.7126829270557222	0.0	0.9305823391065642	-0.8232392205000987	0.0	0.978189595648068	-0.836417346006277	0.0	0.9648543313665597	-0.8389273264885438	0.0	0.9176237376149384	-0.8318095096260741	0.0	0.8898997549654215	-0.6353341866542782	0.0	0.9683916118100097	-0.7088903532942361	0.0	0.9311304418972026	-0.8122589797412968	0.0	0.9796093390270604	-0.8375729085907252	0.0	0.9681978905206596	-0.8464981146815311	0.0	0.9105322962670811	-0.8238529787849549	0.0	0.9706221781037327	-0.5181327747649559	0.0	1.0107926881806997	-0.45701734108834424	0.0	1.0156065720321288	-0.4903445244614788	0.0	0.9602004755766556	-0.53822071716264	0.0	0.9312285816005054	-0.5983221707737636	0.0	0.9252057497169076	-0.6486283068609685	0.0	0.9603675443534115	-0.5299835075562613	0.0	0.9333638626401671	-0.5867613373456092	0.0	0.929133449819505	-0.6345030980725695	0.0
93	3.1129166666666666	0.8890591966016762	-0.6588410291226664	0.0	0.8898284206295461	-0.6593222847578821	0.0	0.9697511149161436	-0.7392537148446755	0.0	0.9305415672348064	-0.8486313271009398	0.0	0.97873287953598	-0.8587246096019763	0.0	0.9657227832603316	-0.860191424482034	0.0	0.9174335228909362	-0.8548047503048104	0.0	0.8924637403778498	-0.6567894829499887	0.0	0.9664172584308587	-0.7360884707741369	0.0	0.9309476104796073	-0.8381116770345955	0.0	0.9805373307697339	-0.8605163891835269	0.0	0.9684798387747222	-0.8672263236116875	0.0	0.910469825567307	-0.8486647253638615	0.0	0.9616282487338838	-0.5306224105869015	0.0	0.9925259229357573	-0.4646680937177961	0.0	1.0024458072850506	-0.49930456184974875	0.0	0.9522140370384569	-0.553118759861063	0.0	0.9477942809147738	-0.6176737947992094	0.0	0.9665131738402359	-0.6609987228016286	0.0	0.9538239244298627	-0.5443622583428085	0.0	0.9505328047948898	-0.6023898638589251	0.0	0.9676365526672928	-0.6449568691445453	0.0
94	3.146388888888889	0.892699995592903	-0.6743493691555515	0.0	0.8935512678556065	-0.674953145086452	0.0	0.9680718460734261	-0.7607096070394693	0.0	0.9308778045873516	-0.8697490895972115	0.0	0.9794227090091695	-0.8766913094747433	0.0	0.9673034800370482	-0.8774897465932162	0.0	0.9174301126815233	-0.8737576636171199	0.0	0.8953852221130933	-0.6723527529628066	0.0	0.9641985985928542	-0.7583173636448162	0.0	0.9312275826749964	-0.8605763784324748	0.0	0.9811552375896243	-0.8782508160683173	0.0	0.9692079286508632	-0.8824407079683909	0.0	0.9103860023755737	-0.869629431665922	0.0	0.9511333705199492	-0.5377315373599278	0.0	0.9712000772512648	-0.4675429028025054	0.0	0.9867810290810531	-0.502677700349783	0.0	0.9433741092501791	-0.5608608065950772	0.0	0.9638440245415079	-0.6196899093833164	0.0	1.0031434730880726	-0.6468671021553251	0.0	0.9468852563520455	-0.5522394154531584	0.0	0.9668345818931324	-0.6020285111904036	0.0	1.001715551163985	-0.6308947241758229	0.0
95	3.1798611111111112	0.8967288968799142	-0.6816357901389618	0.0	0.8975333517578471	-0.6820065278798404	0.0	0.9661691605420856	-0.7738651624507277	0.0	0.9313136176615945	-0.8834154925664319	0.0	0.9793445940285382	-0.8881194476886446	0.0	0.9683881814732774	-0.8888045775881354	0.0	0.9174633280269947	-0.8863450936249375	0.0	0.8986634508389654	-0.6792974986291576	0.0	0.9617271950473122	-0.7721779281268577	0.0	0.9315240819674272	-0.8763328835018063	0.0	0.9806270683321127	-0.8888117987840379	0.0	0.9696874269062065	-0.8909155417973854	0.0	0.9102508107784733	-0.8835500433443846	0.0	0.9396379568097871	-0.5380586284142315	0.0	0.9476702431072063	-0.4647079208187652	0.0	0.9691778942610821	-0.49918763878116085	0.0	0.9340061400849016	-0.5598500954368346	0.0	0.9752178665232603	-0.6032484676179839	0.0	1.0272990519231544	-0.6087006603806411	0.0	0.9391274757746692	-0.5517711291823775	0.0	0.9777044149217646	-0.5852390058367585	0.0	1.0239359815724052	-0.5949041640763325	0.0
96	3.2133333333333334	0.9009512301585507	-0.67856309686723	0.0	0.9017977547225104	-0.6783304201281828	0.0	0.9637449540879242	-0.7765539543967681	0.0	0.9317364133123799	-0.8874510343407414	0.0	0.9777367427715147	-0.8920530581362819	0.0	0.9679507581498145	-0.8931806131503018	0.0	0.9177411610964655	-0.8909989319531192	0.0	0.9020118010925965	-0.6755686026806991	0.0	0.9587759436645624	-0.7753841553083756	0.0	0.9314498903597191	-0.8824403107142336	0.0	0.978222371147693	-0.8913662803142243	0.0	0.968977427950395	-0.8920285445409298	0.0	0.9101139438550051	-0.8883244388416964	0.0	0.9272421117493973	-0.5304269099264487	0.0	0.9225972323415512	-0.4553415502478675	0.0	0.9498411867679089	-0.48787676612056613	0.0	0.9240868385399525	-0.549036673403201	0.0	0.9785212578831828	-0.5700315370960796	0.0	1.0346661522404905	-0.5533815552421136	0.0	0.9295644591028257	-0.5416772679408212	0.0	0.9796267857859727	-0.5541016267020153	0.0	1.0299757515997245	-0.5433270280331088	0.0
97	3.2468055555555555	0.905093700506728	-0.664051564680682	0.0	0.9062414425005297	-0.66295451539165	0.0	0.9610475063419546	-0.7676166749874865	0.0	0.9323468087589514	-0.880631879734025	0.0	0.9746241102876642	-0.887830761636405	0.0	0.9658634277127635	-0.8897872978585462	0.0	0.9187522749862996	-0.8865525648008097	0.0	0.9049828992674604	-0.6603369385779843	0.0	0.9554354055100874	-0.766711898203725	0.0	0.9310491962188464	-0.8768630700196027	0.0	0.9740874983414625	-0.8852988315127567	0.0	0.9665522238252628	-0.8851246002251805	0.0	0.910353494189387	-0.8827702889347607	0.0	0.9136634217650219	-0.5144294475192742	0.0	0.8961978155539316	-0.4393828499422204	0.0	0.928606733726293	-0.4685697985052336	0.0	0.913120773623811	-0.5285206574350556	0.0	0.9723872436827317	-0.5243454980591008	0.0	1.0258099889190544	-0.4896178401373515	0.0	0.9173095579900353	-0.5219447809337074	0.0	0.971595917332375	-0.512346434119149	0.0	1.0203408570434862	-0.48350816404879926	0.0
